Proudly Presents!!! 


Dantes.Inferno.An.Animated.Epic.2010.480p.BRRip.XviD.AC3-Voltage  
 


Source........::: MELiTE 
Encoder.......::: Zahnzek 
Notes.........::: Done our usual work. Enjoy 



General 

Format                           : AVI 
Format/Info                      : Audio Video Interleave 
File size                        : 1.45 GiB 
Duration                         : 1h 28mn 
Overall bit rate                 : 2 361 Kbps 
Writing application              : VirtualDubMod 1.5.10.2 (build 2542/release) 
Writing library                  : VirtualDubMod build 2542/release 


Video 
Format                           : MPEG-4 Visual 
Format profile                   : AdvancedSimple@L5 
Format settings, BVOP            : Yes 
Format settings, QPel            : No 
Format settings, GMC             : No warppoints 
Format settings, Matrix          : Default (H.263) 
Muxing mode                      : Packed bitstream 
Codec ID                         : XVID 
Codec ID/Hint                    : XviD 
Duration                         : 1h 28mn 
Bit rate                         : 1 904 Kbps 
Width                            : 720 pixels 
Height                           : 400 pixels 
Display aspect ratio             : 16:9 
Frame rate                       : 23.976 fps 
Resolution                       : 24 bits 
Colorimetry                      : 4:2:0 
Scan type                        : Progressive 
Bits/(Pixel*Frame)               : 0.276 
Stream size                      : 1.17 GiB (81%) 
Writing library                  : XviD 1.2.1 (UTC 2008-12-04) 


Audio 
Format                           : AC-3 
Format/Info                      : Audio Coding 3 
Codec ID                         : 2000 
Duration                         : 1h 28mn 
Bit rate mode                    : Constant 
Bit rate                         : 448 Kbps 
Channel(s)                       : 6 channels 
Channel positions                : Front: L C R, Surround: L R, LFE 
Sampling rate                    : 48.0 KHz 
Stream size                      : 282 MiB (19%) 
Alignment                        : Split accross interleaves 
Interleave, duration             : 42 ms (1.00 video frame) 
Interleave, preload duration     : 500 ms 
Interleave, preload duration     : 500 ms 




IMDB LINK....:: http://www.imdb.com/title/tt1472122/ 
Audio.............:: English 
Subtitles........:: None